<svg width="48" height="46" viewBox="0 0 48 46" fill="none" xmlns="http://www.w3.org/2000/svg">
<path d="M20.2579 43.6051C20.534 44.0834 21.1456 44.2473 21.6239 43.9712L45.8726 29.9712C46.3509 29.695 46.5148 29.0834 46.2386 28.6051L44.2386 25.141C43.9625 24.6627 43.3509 24.4989 42.8726 24.775L18.6239 38.775C18.1456 39.0512 17.9817 39.6627 18.2579 40.141L20.2579 43.6051ZM16.847 37.6727C17.1567 38.0546 17.6981 38.1548 18.1239 37.909L42.3726 23.909C42.7984 23.6631 42.9823 23.1442 42.8064 22.685L37.3069 8.33777C38.0709 7.79843 38.5913 7.05102 38.8394 6.1251C39.1223 5.06916 38.9825 4.03723 38.4348 3.08848C37.887 2.13973 37.0632 1.50269 36.0073 1.21975C34.9514 0.936808 33.9194 1.07661 32.9707 1.62437C32.0219 2.17213 31.3849 2.99592 31.1019 4.05185C30.819 5.10779 30.9588 6.13973 31.5066 7.08848C31.6151 7.27638 31.7365 7.45357 31.8722 7.61737L28.8402 11.8108L20.6902 8.21058C20.734 7.94104 20.7511 7.66507 20.7428 7.38408C20.7232 6.72399 20.5437 6.10025 20.2123 5.5263C19.6646 4.57755 18.8408 3.94051 17.7849 3.65757C16.7289 3.37463 15.697 3.51444 14.7482 4.0622C13.7995 4.60996 13.1625 5.43374 12.8795 6.48967C12.5966 7.54561 12.7364 8.57755 13.2841 9.5263C13.6155 10.1002 14.066 10.5675 14.6278 10.9146C14.867 11.0623 15.1145 11.1855 15.3698 11.2823L14.4128 20.1406L9.26513 20.6696C9.19114 20.4701 9.09839 20.2764 8.98991 20.0885C8.44215 19.1397 7.61837 18.5027 6.56243 18.2197C5.5065 17.9368 4.47456 18.0766 3.52581 18.6244C2.57706 19.1721 1.94002 19.9959 1.65708 21.0519C1.37414 22.1078 1.51395 23.1397 2.06171 24.0885C2.60947 25.0372 3.43325 25.6743 4.48919 25.9572C5.41511 26.2053 6.32257 26.1284 7.17167 25.7363L16.847 37.6727Z" fill="#CA822E" stroke="white" stroke-width="2" stroke-linejoin="round"/>
</svg>
