<svg width="240" height="52" viewBox="0 0 240 52" fill="none" xmlns="http://www.w3.org/2000/svg">
<path d="M15.6456 23.0788L13.3506 32.4078L17.9406 30.8958L21.0006 33.9198L24.8256 18.7998M35.5356 23.0788L37.8306 32.4078L33.2406 30.8958L30.1806 33.9198L26.3556 18.7998" fill="#FFBB6D"/>
<path d="M15.6456 23.0788L13.3506 32.4078L17.9406 30.8958L21.0006 33.9198L24.8256 18.7998M35.5356 23.0788L37.8306 32.4078L33.2406 30.8958L30.1806 33.9198L26.3556 18.7998" stroke="#282828" stroke-width="3" stroke-linecap="round" stroke-linejoin="round"/>
<path d="M14.071 15.44V13.52C14.071 10.4647 15.2847 7.53455 17.4451 5.37413C19.6055 3.21371 22.5357 2 25.591 2C28.6463 2 31.5764 3.21371 33.7369 5.37413C35.8973 7.53455 37.111 10.4647 37.111 13.52V15.44M6.01082 18.8576L3.0233 45.7376C2.96391 46.2743 3.01836 46.8174 3.1831 47.3316C3.34783 47.8458 3.61916 48.3195 3.97935 48.7217C4.33955 49.1239 4.78052 49.4457 5.27349 49.6659C5.76645 49.8862 6.30033 50 6.84026 50H44.3417C44.8816 50 45.4155 49.8862 45.9085 49.6659C46.4014 49.4457 46.8424 49.1239 47.2026 48.7217C47.5628 48.3195 47.8341 47.8458 47.9989 47.3316C48.1636 46.8174 48.2181 46.2743 48.1587 45.7376L45.1711 18.8576C45.0672 17.918 44.6202 17.0498 43.916 16.4192C43.2117 15.7886 42.2995 15.4399 41.3542 15.44H9.82778C8.88244 15.4399 7.9703 15.7886 7.26602 16.4192C6.56174 17.0498 6.11481 17.918 6.01082 18.8576Z" stroke="#282828" stroke-width="3"/>
<path d="M22.5667 12.536C20.7523 10.268 17.4259 8 13.4947 8C11.8315 8 10.4707 11.3264 10.4707 15.56C10.4707 19.7936 11.8315 23.12 13.4947 23.12C17.4259 23.12 20.7523 20.852 22.5667 18.584M28.6147 15.56H31.6387H28.6147ZM28.6147 18.584C30.4291 20.852 33.7555 23.12 37.6867 23.12C39.3499 23.12 40.7107 19.7936 40.7107 15.56C40.7107 11.3264 39.3499 8 37.6867 8C33.7555 8 30.4291 10.268 28.6147 12.536" fill="#FFBB6D"/>
<path d="M22.5667 12.536C20.7523 10.268 17.4259 8 13.4947 8C11.8315 8 10.4707 11.3264 10.4707 15.56C10.4707 19.7936 11.8315 23.12 13.4947 23.12C17.4259 23.12 20.7523 20.852 22.5667 18.584M28.6147 15.56H31.6387M28.6147 18.584C30.4291 20.852 33.7555 23.12 37.6867 23.12C39.3499 23.12 40.7107 19.7936 40.7107 15.56C40.7107 11.3264 39.3499 8 37.6867 8C33.7555 8 30.4291 10.268 28.6147 12.536" stroke="#282828" stroke-width="3" stroke-linecap="round" stroke-linejoin="round"/>
<path d="M22.2304 12.3198H28.4704V18.7998H22.2304V12.3198ZM19.1104 15.5598H22.2304H19.1104Z" fill="#FFBB6D"/>
<path d="M19.1104 15.5598H22.2304M22.2304 12.3198H28.4704V18.7998H22.2304V12.3198Z" stroke="#282828" stroke-width="3" stroke-linecap="round" stroke-linejoin="round"/>
<path d="M227.05 40.0001V16.3521H231.274V40.0001H227.05Z" fill="#282828"/>
<path d="M210.142 40.0001V16.3521H214.366V36.448H224.19V40.0001H210.142Z" fill="#282828"/>
<path d="M196.231 40.448C194.183 40.448 192.369 39.9467 190.791 38.944C189.233 37.9414 188.007 36.5227 187.111 34.688C186.236 32.832 185.799 30.6347 185.799 28.096C185.799 25.536 186.236 23.3494 187.111 21.536C188.007 19.7227 189.233 18.336 190.791 17.376C192.369 16.416 194.183 15.936 196.231 15.936C198.3 15.936 200.113 16.4267 201.671 17.408C203.228 18.368 204.444 19.7547 205.319 21.568C206.215 23.36 206.663 25.536 206.663 28.096C206.663 30.6347 206.215 32.832 205.319 34.688C204.444 36.5227 203.228 37.9414 201.671 38.944C200.113 39.9467 198.3 40.448 196.231 40.448ZM196.231 36.768C197.468 36.768 198.545 36.416 199.463 35.712C200.38 34.9867 201.084 33.9734 201.575 32.672C202.087 31.3707 202.343 29.8454 202.343 28.096C202.343 26.3254 202.087 24.8107 201.575 23.552C201.084 22.272 200.38 21.2907 199.463 20.608C198.545 19.9254 197.468 19.584 196.231 19.584C194.993 19.584 193.916 19.9254 192.999 20.608C192.081 21.2907 191.377 22.272 190.887 23.552C190.396 24.8107 190.151 26.3254 190.151 28.096C190.151 29.8454 190.396 31.3707 190.887 32.672C191.377 33.9734 192.081 34.9867 192.999 35.712C193.916 36.416 194.993 36.768 196.231 36.768Z" fill="#282828"/>
<path d="M173.136 40.448C171.088 40.448 169.275 39.9467 167.696 38.944C166.139 37.9414 164.912 36.5227 164.016 34.688C163.141 32.832 162.704 30.6347 162.704 28.096C162.704 25.536 163.141 23.3494 164.016 21.536C164.912 19.7227 166.139 18.336 167.696 17.376C169.275 16.416 171.088 15.936 173.136 15.936C175.205 15.936 177.019 16.4267 178.576 17.408C180.133 18.368 181.349 19.7547 182.224 21.568C183.12 23.36 183.568 25.536 183.568 28.096C183.568 30.6347 183.12 32.832 182.224 34.688C181.349 36.5227 180.133 37.9414 178.576 38.944C177.019 39.9467 175.205 40.448 173.136 40.448ZM173.136 36.768C174.373 36.768 175.451 36.416 176.368 35.712C177.285 34.9867 177.989 33.9734 178.48 32.672C178.992 31.3707 179.248 29.8454 179.248 28.096C179.248 26.3254 178.992 24.8107 178.48 23.552C177.989 22.272 177.285 21.2907 176.368 20.608C175.451 19.9254 174.373 19.584 173.136 19.584C171.899 19.584 170.821 19.9254 169.904 20.608C168.987 21.2907 168.283 22.272 167.792 23.552C167.301 24.8107 167.056 26.3254 167.056 28.096C167.056 29.8454 167.301 31.3707 167.792 32.672C168.283 33.9734 168.987 34.9867 169.904 35.712C170.821 36.416 171.899 36.768 173.136 36.768Z" fill="#282828"/>
<path d="M141.264 40.0001V16.3521H145.488V25.8561H155.024V16.3521H159.216V40.0001H155.024V29.5361H145.488V40.0001H141.264Z" fill="#282828"/>
<path d="M129.775 40.448C127.642 40.448 125.733 39.9787 124.047 39.04C122.383 38.08 121.061 36.6934 120.079 34.88C119.098 33.0667 118.607 30.8587 118.607 28.256C118.607 26.3147 118.895 24.5867 119.471 23.072C120.047 21.5574 120.837 20.2667 121.839 19.2C122.863 18.1334 124.047 17.3227 125.391 16.768C126.757 16.2134 128.229 15.936 129.807 15.936C131.493 15.936 132.922 16.2454 134.095 16.864C135.269 17.4827 136.229 18.176 136.975 18.944L134.703 21.632C134.106 21.056 133.434 20.576 132.687 20.192C131.962 19.7867 131.045 19.584 129.935 19.584C128.549 19.584 127.333 19.936 126.287 20.64C125.242 21.3227 124.421 22.304 123.823 23.584C123.247 24.8427 122.959 26.3574 122.959 28.128C122.959 29.92 123.226 31.4667 123.759 32.768C124.314 34.048 125.125 35.04 126.191 35.744C127.279 36.4267 128.613 36.768 130.191 36.768C130.853 36.768 131.482 36.6827 132.079 36.512C132.677 36.32 133.157 36.064 133.519 35.744V30.656H129.071V27.168H137.327V37.632C136.538 38.4214 135.482 39.0934 134.159 39.648C132.837 40.1814 131.375 40.448 129.775 40.448Z" fill="#282828"/>
<path d="M97.3857 40.0001V16.3521H101.706L109.034 29.6L111.498 34.656H111.658C111.53 33.4401 111.402 32.1281 111.274 30.7201C111.146 29.2907 111.082 27.9147 111.082 26.5921V16.3521H115.082V40.0001H110.762L103.466 26.7201L101.002 21.7281H100.874C100.959 22.9654 101.066 24.2774 101.194 25.6641C101.322 27.0294 101.386 28.3734 101.386 29.6961V40.0001H97.3857Z" fill="#282828"/>
<path d="M75.375 40.0001L83.087 16.3521H88.015L95.695 40.0001H91.247L87.663 27.4241C87.279 26.1654 86.9163 24.8747 86.575 23.5521C86.2337 22.2294 85.8817 20.9281 85.519 19.6481H85.391C85.071 20.9494 84.7297 22.2614 84.367 23.5841C84.0043 24.8854 83.6417 26.1654 83.279 27.4241L79.663 40.0001H75.375ZM79.919 33.6001V30.3041H91.087V33.6001H79.919Z" fill="#282828"/>
<path d="M66.9202 40.448C65.2989 40.448 63.7522 40.1494 62.2802 39.552C60.8082 38.9334 59.5175 38.08 58.4082 36.992L60.8402 34.08C61.6935 34.8907 62.6535 35.5414 63.7202 36.032C64.8082 36.5227 65.8962 36.768 66.9842 36.768C68.3282 36.768 69.3415 36.4907 70.0242 35.936C70.7282 35.3814 71.0802 34.656 71.0802 33.76C71.0802 33.0987 70.9202 32.5654 70.6002 32.16C70.2802 31.7547 69.8429 31.4134 69.2882 31.136C68.7549 30.8374 68.1362 30.5387 67.4322 30.24L64.2002 28.864C63.4322 28.544 62.6749 28.1174 61.9282 27.584C61.2029 27.0507 60.5949 26.3787 60.1042 25.568C59.6349 24.736 59.4002 23.7547 59.4002 22.624C59.4002 21.344 59.7415 20.2027 60.4242 19.2C61.1069 18.1974 62.0455 17.408 63.2402 16.832C64.4562 16.2347 65.8322 15.936 67.3682 15.936C68.7549 15.936 70.0882 16.2027 71.3682 16.736C72.6482 17.2694 73.7469 18.0054 74.6642 18.944L72.4882 21.632C71.7415 20.992 70.9522 20.4907 70.1202 20.128C69.3095 19.7654 68.3922 19.584 67.3682 19.584C66.2589 19.584 65.3735 19.8294 64.7122 20.32C64.0509 20.8107 63.7202 21.4827 63.7202 22.336C63.7202 22.9547 63.8909 23.4667 64.2322 23.872C64.5949 24.2774 65.0535 24.6187 65.6082 24.896C66.1842 25.152 66.8029 25.4187 67.4642 25.696L70.6322 27.008C71.5709 27.392 72.3922 27.872 73.0962 28.448C73.8215 29.0027 74.3869 29.6854 74.7922 30.496C75.1975 31.2854 75.4002 32.256 75.4002 33.408C75.4002 34.688 75.0589 35.8614 74.3762 36.928C73.7149 37.9947 72.7442 38.848 71.4642 39.488C70.2055 40.128 68.6909 40.448 66.9202 40.448Z" fill="#282828"/>
</svg>
